# xmcd
#
# Track frame offsets: 
#        150
#        12040
#        27636
#        58174
#        71360
#        104197
#        132743
#        158522
#        164297
#        189687
#        212735
#        250725
#
# Disc length: 3366 seconds
#
# Revision: 0
# Processed by: cddbd v1.5.2PL0 Copyright (c) Steve Scherf et al.
# Submitted via: ExactAudioCopy v0.95b3
#
DISCID=ad0d240c
DTITLE=Joe Bonamassa - Live From The Royal Albert Hall CD1 (DVD)
DYEAR=2009
DGENRE=Blues
TTITLE0=The Road To The Royal Albert Hall
TTITLE1=Django
TTITLE2=The Ballad Of John Henry
TTITLE3=So It's Like That
TTITLE4=Last Kiss
TTITLE5=So Many Roads
TTITLE6=Stop
TTITLE7=Introducing Eric Clapton
TTITLE8=Further On Up The Road
TTITLE9=High Water Everywhere
TTITLE10=Sloe Gin
TTITLE11=Intermission
EXTD=
EXTT0=
EXTT1=
EXTT2=
EXTT3=
EXTT4=
EXTT5=
EXTT6=
EXTT7=
EXTT8=
EXTT9=
EXTT10=
EXTT11=
PLAYORDER=
